<svg width="105" height="114" viewBox="0 0 105 114" fill="none" xmlns="http://www.w3.org/2000/svg">
<path d="M103.627 75.2678L97.9434 73.8039C97.4759 72.1891 96.833 70.6195 96.0587 69.1254L99.0683 63.9338C99.492 63.1943 99.3897 62.2586 98.7907 61.655L93.1368 55.8144C92.5524 55.2107 91.632 55.09 90.9307 55.5277L85.905 58.6366C85.2475 58.2744 84.5901 57.9424 83.9034 57.6405C83.0707 57.2783 82.2233 56.9614 81.376 56.6897L79.9588 50.819C79.7543 49.989 79.0384 49.4004 78.2057 49.4004H70.2141C69.3814 49.4004 68.6655 49.989 68.461 50.819L67.0438 56.6897C65.4806 57.1727 63.9612 57.8367 62.5148 58.6366L57.4891 55.5277C56.7732 55.09 55.8674 55.1957 55.283 55.8144L49.6291 61.655C49.0447 62.2586 48.9278 63.2094 49.3515 63.9338L52.3611 69.1254C51.5868 70.6195 50.9585 72.174 50.4764 73.8039L44.7932 75.2678C43.9897 75.4791 43.4199 76.2186 43.4199 77.0788V85.334C43.4199 86.1943 43.9897 86.9338 44.7932 87.1451L50.4764 88.609C50.9439 90.2238 51.5868 91.7933 52.3611 93.2874L49.3515 98.479C48.9278 99.2185 49.0301 100.154 49.6291 100.758L55.283 106.598C55.8674 107.202 56.7878 107.323 57.4891 106.885L62.5148 103.776C63.9612 104.576 65.4806 105.225 67.0438 105.723L68.461 111.594C68.6655 112.424 69.3814 113.012 70.2141 113.012H78.2057C79.0384 113.012 79.7543 112.424 79.9588 111.594L81.376 105.723C82.9392 105.24 84.4586 104.576 85.905 103.776L90.9307 106.885C91.6466 107.323 92.5524 107.217 93.1368 106.598L98.7907 100.758C99.3751 100.154 99.492 99.2034 99.0683 98.479L96.0587 93.2874C96.833 91.7933 97.4613 90.2238 97.9434 88.609L103.627 87.1451C104.43 86.9338 105 86.1943 105 85.334V77.0939C104.985 76.2186 104.43 75.4791 103.627 75.2678ZM101.377 83.8701L96.0441 85.2435C95.4013 85.4095 94.8899 85.9226 94.7292 86.6018C94.2325 88.6241 93.4582 90.5709 92.4209 92.3668C92.0849 92.9554 92.0849 93.6949 92.4209 94.2835L95.2552 99.1431L91.6174 102.916L86.913 99.9882C86.3433 99.6411 85.6274 99.6411 85.0576 99.9882C83.3191 101.06 81.4344 101.86 79.4767 102.373C78.8339 102.539 78.3225 103.067 78.1618 103.731L76.8177 109.224H71.6605L70.331 103.716C70.1703 103.052 69.6736 102.524 69.0161 102.358C67.0584 101.845 65.1738 101.045 63.4352 99.9731C62.8655 99.626 62.1496 99.626 61.5798 99.9731L56.8755 102.901L53.223 99.1431L56.0573 94.2835C56.3933 93.6949 56.3933 92.9554 56.0573 92.3668C55.02 90.5709 54.2457 88.6241 53.749 86.6018C53.5883 85.9377 53.0769 85.4095 52.4341 85.2435L47.1162 83.855V78.5276L52.4487 77.1543C53.0916 76.9883 53.6029 76.4751 53.7636 75.796C54.2603 73.7737 55.0346 71.8269 56.0719 70.0309C56.408 69.4423 56.408 68.7028 56.0719 68.1143L53.2376 63.2547L56.8755 59.4817L61.5798 62.4096C62.1496 62.7567 62.8655 62.7567 63.4352 62.4096C65.1738 61.338 67.0584 60.5382 69.0161 60.025C69.659 59.859 70.1703 59.3308 70.331 58.6668L71.6751 53.1733H76.8323L78.1618 58.6819C78.3225 59.3459 78.8193 59.8741 79.4767 60.0401C81.4344 60.5533 83.3191 61.3531 85.0576 62.4246C85.6274 62.7718 86.3433 62.7718 86.913 62.4246L91.6174 59.4968L95.2698 63.2698L92.4355 68.1294C92.0995 68.7179 92.0995 69.4574 92.4355 70.046C93.4728 71.8419 94.2471 73.7888 94.7439 75.8111C94.9046 76.4751 95.4159 77.0033 96.0587 77.1694L101.377 78.5578V83.8701Z" fill="#553D67"/>
<path d="M74.2175 66.2429C66.2114 66.2429 59.7393 72.9437 59.7393 81.1989C59.7393 89.454 66.226 96.1548 74.2175 96.1548C82.209 96.1548 88.6957 89.454 88.6957 81.1989C88.6957 72.9437 82.2236 66.258 74.2175 66.2429ZM74.2175 92.4271C68.2129 92.4271 63.3625 87.4016 63.3625 81.2139C63.3625 75.0263 68.2275 70.0008 74.2175 70.0008C80.2221 70.0008 85.0725 75.0263 85.0725 81.2139C85.0871 87.4016 80.2221 92.412 74.2175 92.4271Z" fill="#553D67"/>
<path d="M83.2754 23.2314H86.8986V53.1584H83.2754V23.2314Z" fill="#553D67"/>
<path d="M7.24642 96.1699V103.655C7.24642 104.682 8.04995 105.527 9.05802 105.527H47.0725V101.784H10.855V96.1699H32.5797C32.8573 96.1699 33.1348 96.1096 33.3832 95.9888L40.6296 92.2461C41.2432 91.9291 41.6377 91.2802 41.6377 90.5709C41.6377 89.8616 41.2432 89.2126 40.6296 88.8957L33.3832 85.1529C33.1348 85.0171 32.8573 84.9567 32.5797 84.9416H10.855V21.3599H79.6522C83.6552 21.3599 86.8986 18.0095 86.8986 13.8744V10.1467C86.8986 9.12047 86.0951 8.27533 85.087 8.27533H79.6522V12.0181H83.2754V13.8895C83.2754 15.957 81.6537 17.6322 79.6522 17.6322C77.6507 17.6322 76.029 15.957 76.029 13.8895V8.27533C76.029 6.20775 77.6507 4.53256 79.6522 4.53256H86.8986C88.9001 4.53256 90.5218 6.20775 90.5218 8.27533V51.2869H94.145V8.27533C94.145 4.14017 90.9017 0.789795 86.8986 0.789795H7.24642C3.24336 0.789795 0 4.14017 0 8.27533V13.8895C0 18.0246 3.24336 21.375 7.24642 21.375V84.9567H5.43481C2.42521 84.9416 0 87.462 0 90.5558C0 93.6496 2.42521 96.1699 5.43481 96.1699H7.24642ZM3.62321 13.8744V8.27533C3.62321 6.20775 5.24489 4.53256 7.24642 4.53256H73.4284C72.771 5.66444 72.435 6.96234 72.4204 8.27533V13.8895C72.4204 15.2025 72.771 16.5004 73.4284 17.6322H7.24642C5.24489 17.6171 3.62321 15.942 3.62321 13.8744ZM35.7792 90.5558L32.156 92.4272H30.7681V88.6844H32.156L35.7792 90.5558ZM3.62321 90.5558C3.62321 89.5295 4.42674 88.6844 5.43481 88.6844H27.1595V92.4272H5.43481C4.42674 92.4272 3.62321 91.582 3.62321 90.5558Z" fill="#553D67"/>
<path d="M0 28.8455H3.62317V66.2429H0V28.8455Z" fill="#553D67"/>
<path d="M70.6086 30.7167V26.9739H47.0724C46.5903 26.9739 46.1374 27.1701 45.7867 27.5172L42.4849 30.928C34.5811 24.9365 23.6238 25.8119 16.6988 32.9805C15.9975 33.7049 15.9975 34.8972 16.6988 35.6216L29.4969 48.842C29.8329 49.1891 30.3004 49.3853 30.7826 49.4004H48.884C49.8775 49.4004 50.6956 48.5703 50.6956 47.529C50.6956 42.262 48.7379 37.2062 45.217 33.388L47.8321 30.6865H70.6086V30.7167ZM46.9701 45.6727H31.5277L20.6142 34.3991C26.1805 29.7961 33.9967 29.4792 39.899 33.6294L34.9463 38.7456L37.503 41.3866L42.6749 36.0441C45.0709 38.6852 46.5757 42.0658 46.9701 45.6727Z" fill="#553D67"/>
<path d="M74.2173 26.9741H77.8405V30.717H74.2173V26.9741Z" fill="#553D67"/>
<path d="M19.9131 55.0144H23.5363V58.7571H19.9131V55.0144Z" fill="#553D67"/>
<path d="M27.1594 55.0144H45.2609V58.7571H27.1594V55.0144Z" fill="#553D67"/>
<path d="M16.2898 62.5H45.2609V66.2427H16.2898V62.5Z" fill="#553D67"/>
<path d="M56.1157 34.4446H59.7389V38.1873H56.1157V34.4446Z" fill="#553D67"/>
<path d="M63.3623 34.4446H77.8406V38.1873H63.3623V34.4446Z" fill="#553D67"/>
<path d="M56.1157 41.9299H77.8403V45.6726H56.1157V41.9299Z" fill="#553D67"/>
<path d="M16.2898 69.9858H39.826V73.7285H16.2898V69.9858Z" fill="#553D67"/>
</svg>
