<svg width="0" height="0" class="hidden">
  <symbol fill="none" xmlns="http://www.w3.org/2000/svg" viewBox="0 0 39 36" id="arrow-back">
    <path d="M30.5359 16.5074H12.3847L20.3147 9.18738C20.9484 8.60238 20.9484 7.64238 20.3147 7.05738C20.0111 6.7765 19.5989 6.61865 19.169 6.61865C18.7392 6.61865 18.327 6.7765 18.0234 7.05738L7.31467 16.9424C6.68092 17.5274 6.68092 18.4724 7.31467 19.0574L18.0234 28.9424C18.6572 29.5274 19.6809 29.5274 20.3147 28.9424C20.9484 28.3574 20.9484 27.4124 20.3147 26.8274L12.3847 19.5074H30.5359C31.4297 19.5074 32.1609 18.8324 32.1609 18.0074C32.1609 17.1824 31.4297 16.5074 30.5359 16.5074Z" fill="#BBC8D4"></path>
  </symbol>
  <symbol fill="none" xmlns="http://www.w3.org/2000/svg" viewBox="0 0 39 36" id="arrow-forward">
    <path d="M8.4646 19.5001H26.6159L18.6858 26.8201C18.0521 27.4051 18.0521 28.3651 18.6858 28.9501C19.3196 29.5351 20.3433 29.5351 20.9771 28.9501L31.6859 19.0651C32.3196 18.4801 32.3196 17.5351 31.6859 16.9501L20.9934 7.05006C20.6897 6.76918 20.2776 6.61133 19.8477 6.61133C19.4179 6.61133 19.0057 6.76918 18.7021 7.05006C18.0683 7.63506 18.0683 8.58006 18.7021 9.16506L26.6159 16.5001H8.4646C7.57085 16.5001 6.8396 17.1751 6.8396 18.0001C6.8396 18.8251 7.57085 19.5001 8.4646 19.5001Z" fill="#553D67"></path>
  </symbol>
  <symbol fill="none" xmlns="http://www.w3.org/2000/svg" viewBox="0 0 75 71" id="book">
    <path d="M57.8001 6.9068C57.3201 6.29893 56.5701 5.9342 55.7601 5.9342H30.9001C29.8201 5.9342 28.8701 6.57949 28.5301 7.53338L24.3701 19.2233C23.9301 20.439 24.6301 21.767 25.9301 22.1785C26.1901 22.2626 26.4701 22.3 26.7401 22.3H51.6001C52.6801 22.3 53.6301 21.6548 53.9701 20.7009L58.1301 9.01098C58.3901 8.30024 58.2601 7.51468 57.8001 6.9068ZM51.6001 19.9621H26.7401L30.9001 8.27218H55.7601L51.6001 19.9621Z" fill="#553D67"></path>
    <path d="M68.83 4.70924L58.67 33.2324C58.45 33.8496 57.74 34.177 57.08 33.9712C56.42 33.7655 56.07 33.1015 56.29 32.4843L66.46 3.97045C66.6 3.61507 66.54 3.2223 66.3 2.92304C66.07 2.61443 65.69 2.42739 65.29 2.43674H23.05C22.51 2.43674 22.03 2.7547 21.86 3.23165L3.54 54.6669C3.4 55.0223 3.46 55.415 3.7 55.7143C3.93 56.0136 4.31 56.2006 4.71 56.2006H47.5C48.19 56.2006 48.75 56.7243 48.75 57.3696C48.75 58.0149 48.19 58.5386 47.5 58.5386H5.81C3.92 58.7443 2.5 60.2406 2.5 62.0175V64.3741C2.51 66.31 4.18 67.8717 6.25 67.8811H54.1L55.05 65.1971C55.27 64.5799 55.98 64.2526 56.64 64.4583C57.3 64.664 57.65 65.328 57.43 65.9452L56.19 69.4241C56.01 69.9011 55.53 70.219 55 70.2284H6.25C2.8 70.2284 0 67.6099 0 64.3835V62.0268C0 60.3248 0.8 58.7069 2.19 57.6127C2 57.4444 1.83 57.2667 1.67 57.0797C0.96 56.1725 0.77 54.9942 1.16 53.9281L19.5 2.49285C20 1.05266 21.44 0.0800705 23.05 0.0894223H65.29C67.36 0.0894223 69.04 1.66989 69.03 3.60572C69.03 3.9798 68.96 4.35387 68.83 4.70924Z" fill="#553D67"></path>
    <path d="M74.1399 15.3425C73.4899 15.1368 72.7799 15.4734 72.5599 16.0813L65.06 37.123C64.84 37.7402 65.2 38.3949 65.85 38.6006C66.51 38.8063 67.21 38.4697 67.43 37.8618L74.9299 16.8201C75.1499 16.2122 74.7999 15.5482 74.1399 15.3425Z" fill="#553D67"></path>
    <path d="M71.91 45.8578L41.91 28.3229C41.45 28.0517 40.86 28.0891 40.45 28.4165C40.03 28.7438 39.88 29.2862 40.09 29.7631L53.84 61.3258C54.04 61.7653 54.49 62.0459 55 62.0459C55.04 62.0459 55.08 62.0459 55.12 62.0365C55.67 61.9898 56.13 61.6064 56.22 61.092L58.56 49.1122L71.36 48.0274C72.05 47.9619 72.56 47.3915 72.49 46.7368C72.45 46.3721 72.24 46.0448 71.91 45.8578ZM57.39 46.8491C56.83 46.8958 56.38 47.2886 56.28 47.803L54.54 56.706L43.86 32.2227L67.43 45.9887L57.39 46.8491Z" fill="#553D67"></path>
  </symbol>
  <symbol fill="none" xmlns="http://www.w3.org/2000/svg" viewBox="0 0 34 24" id="checkmark">
    <path d="M2 9.6L11.5818 21L33 2" stroke="#F64C72" stroke-width="3"></path>
  </symbol>
  <symbol fill="none" xmlns="http://www.w3.org/2000/svg" viewBox="0 0 15 15" id="chevron-right">
    <path d="M4.37379 13.1342C4.68004 13.4404 5.17379 13.4404 5.48004 13.1342L10.6738 7.94043C10.9175 7.69668 10.9175 7.30293 10.6738 7.05918L5.48004 1.86543C5.17379 1.55918 4.68004 1.55918 4.37379 1.86543C4.06754 2.17168 4.06754 2.66543 4.37379 2.97168L8.89879 7.50293L4.36754 12.0342C4.06754 12.3342 4.06754 12.8342 4.37379 13.1342Z" fill="#553D67"></path>
  </symbol>
  <symbol fill="none" xmlns="http://www.w3.org/2000/svg" viewBox="0 0 75 76" id="clock">
    <path d="M37.5 0.0836182C16.7862 0.0836182 0 16.9032 0 37.6581C0 58.4131 16.7862 75.2327 37.5 75.2327C58.2138 75.2327 75 58.4131 75 37.6581C74.9803 16.913 58.2039 0.103394 37.5 0.0836182ZM37.5 72.731C18.1678 72.731 2.49671 57.0288 2.49671 37.6581C2.49671 18.2875 18.1678 2.58529 37.5 2.58529C56.8322 2.58529 72.5033 18.2875 72.5033 37.6581C72.4737 57.0189 56.8224 72.7013 37.5 72.731Z" fill="#553D67"></path>
    <path d="M37.4999 6.34277C20.24 6.34277 6.24658 20.364 6.24658 37.6581C6.24658 54.9523 20.24 68.9735 37.4999 68.9735C54.7598 68.9735 68.7532 54.9523 68.7532 37.6581C68.7334 20.3739 54.7499 6.36255 37.4999 6.34277ZM37.4999 66.462C21.6216 66.462 8.75316 53.568 8.75316 37.6581C8.75316 21.7483 21.6216 8.85433 37.4999 8.85433C53.3782 8.85433 66.2466 21.7483 66.2466 37.6581C66.2367 53.5581 53.3683 66.4521 37.4999 66.462Z" fill="#553D67"></path>
    <path d="M38.7433 12.6118H36.2466V15.1134H38.7433V12.6118Z" fill="#553D67"></path>
    <path d="M38.7433 60.2028H36.2466V62.7045H38.7433V60.2028Z" fill="#553D67"></path>
    <path d="M26.0791 15.3393L23.917 16.5905L25.1656 18.7569L27.3278 17.5058L26.0791 15.3393Z" fill="#553D67"></path>
    <path d="M49.8243 56.5554L47.6621 57.8065L48.9107 59.973L51.0729 58.7219L49.8243 56.5554Z" fill="#553D67"></path>
    <path d="M16.471 24.0514L15.2227 26.2178L17.3848 27.4686L18.6332 25.3022L16.471 24.0514Z" fill="#553D67"></path>
    <path d="M57.6011 47.8531L56.3528 50.0197L58.5149 51.2706L59.7633 49.104L57.6011 47.8531Z" fill="#553D67"></path>
    <path d="M15.0001 36.4023H12.5034V38.9041H15.0001V36.4023Z" fill="#553D67"></path>
    <path d="M62.4967 36.4023H60V38.9041H62.4967V36.4023Z" fill="#553D67"></path>
    <path d="M17.387 47.8514L15.2246 49.1019L16.4727 51.2685L18.6351 50.018L17.387 47.8514Z" fill="#553D67"></path>
    <path d="M58.5157 24.0503L56.3535 25.3011L57.6019 27.4676L59.764 26.2167L58.5157 24.0503Z" fill="#553D67"></path>
    <path d="M25.1563 56.5525L23.9077 58.7189L26.0699 59.9699L27.3185 57.8035L25.1563 56.5525Z" fill="#553D67"></path>
    <path d="M48.9075 15.3426L47.6589 17.509L49.8211 18.7601L51.0697 16.5937L48.9075 15.3426Z" fill="#553D67"></path>
    <path d="M36.2467 17.6151V36.9461L24.3552 44.0951L25.6381 46.2408L38.1414 38.726C38.5164 38.4986 38.7434 38.0931 38.7434 37.6482V17.6151H36.2467Z" fill="#553D67"></path>
  </symbol>
  <symbol fill="none" xmlns="http://www.w3.org/2000/svg" viewBox="0 0 13 28" id="facebook">
    <path fill-rule="evenodd" clip-rule="evenodd" d="M3.09084 13.871V26.8511C3.09084 27.0387 3.23746 27.1872 3.42268 27.1872H8.18424C8.36945 27.1872 8.51607 27.0387 8.51607 26.8511V13.66H11.9657C12.1355 13.66 12.2821 13.5271 12.2975 13.3474L12.6294 9.37752C12.6448 9.18215 12.4905 9.01023 12.2975 9.01023H8.51607V6.18913C8.51607 5.52488 9.04856 4.99348 9.69681 4.99348H12.3593C12.5445 4.99348 12.6911 4.84501 12.6911 4.65745V0.679781C12.6911 0.492229 12.5445 0.34375 12.3593 0.34375H7.86783C5.22852 0.34375 3.09084 2.50842 3.09084 5.18104V9.01023H0.713923C0.528708 9.01023 0.38208 9.15871 0.38208 9.34626V13.3161C0.38208 13.5037 0.528708 13.6521 0.713923 13.6521H3.09084V13.871Z" fill="#553D67"></path>
  </symbol>
  <symbol fill="none" xmlns="http://www.w3.org/2000/svg" viewBox="0 0 102 75" id="hands">
    <path d="M82.7411 40.993L74.5556 49.2017C74.4536 49.0738 74.3389 48.946 74.2114 48.8181L63.6289 38.2056C63.0424 37.6174 62.0989 37.6174 61.5124 38.2056C60.9259 38.7938 60.9259 39.7399 61.5124 40.3281L72.0949 50.9406C73.0001 51.8484 73.0001 53.3316 72.0949 54.2522C71.1896 55.16 69.7106 55.16 68.7926 54.2522L62.9149 48.3578C62.3284 47.7696 61.3849 47.7696 60.7984 48.3578C60.2119 48.946 60.2119 49.8921 60.7984 50.4803L66.6761 56.3747C67.1224 56.8222 67.3646 57.3976 67.3646 58.0241C67.3646 58.6507 67.1224 59.2388 66.6761 59.6735C66.2299 60.1211 65.6561 60.364 65.0314 60.364C64.4066 60.364 63.8201 60.1211 63.3866 59.6735L57.5089 53.7919C56.9224 53.2037 55.9789 53.2037 55.3924 53.7919C54.8059 54.3801 54.8059 55.3262 55.3924 55.9144L61.2701 61.8088C62.1754 62.7166 62.1754 64.1998 61.2701 65.1204C60.8239 65.568 60.2501 65.8109 59.6254 65.8109C59.0006 65.8109 58.4141 65.568 57.9806 65.1204L52.1029 59.226C51.5164 58.6379 50.5729 58.6379 49.9864 59.226C49.3999 59.8142 49.3999 60.7604 49.9864 61.3485L55.8641 67.2429C56.7694 68.1508 56.7694 69.634 55.8641 70.5546C55.4179 71.0021 54.8441 71.245 54.2194 71.245C53.5946 71.245 53.0081 71.0021 52.5746 70.5546L48.7624 66.7315C49.9736 64.6985 49.7186 62.0262 47.9719 60.2873L47.8699 60.185C46.7096 59.0214 45.1414 58.5228 43.6241 58.6634C43.5349 57.3848 42.9994 56.2085 42.0941 55.2879C41.3929 54.5846 40.5386 54.1244 39.6334 53.8942C39.8629 53.2933 39.9904 52.6539 39.9904 51.9891C39.9904 50.5826 39.4421 49.2528 38.4476 48.2555C37.4531 47.2582 36.1271 46.7084 34.7246 46.7084C33.9214 46.7084 33.1564 46.8874 32.4551 47.2198C32.2129 46.3759 31.7794 45.5832 31.1164 44.9311C29.0636 42.8725 25.7231 42.8725 23.6704 44.9311L23.0584 45.5448L22.6121 45.0973C21.8854 44.3685 21.4901 43.4096 21.4901 42.3739V38.4613C21.4901 38.0649 21.3371 37.6814 21.0566 37.4001L14.6689 30.9942L16.4666 29.1914C17.0531 28.6032 17.0531 27.657 16.4666 27.0689C15.8801 26.4807 14.9366 26.4807 14.3501 27.0689L11.9404 29.4854C11.4814 29.9457 10.7419 29.9457 10.2956 29.4854L2.55637 21.7882C1.96987 21.2 1.02637 21.2 0.439875 21.7882C-0.146625 22.3763 -0.146625 23.3225 0.439875 23.9107L8.14087 31.6335C8.95687 32.4518 10.0151 32.8482 11.0861 32.8482C11.4304 32.8482 11.7619 32.797 12.0934 32.7203L18.4684 39.1134V42.4122C18.4684 44.2407 19.1824 45.954 20.4701 47.2582L20.9164 47.7057L20.4191 48.2044C19.4246 49.2017 18.8764 50.5314 18.8764 51.9379C18.8764 53.3444 19.4246 54.6742 20.4191 55.6715C21.4391 56.6944 22.7906 57.2186 24.1421 57.2186C24.1676 57.2186 24.1804 57.2186 24.2059 57.2186C24.2059 57.2442 24.2059 57.257 24.2059 57.2825C24.2059 58.689 24.7541 60.0188 25.7486 61.0161C26.7431 62.0134 28.0691 62.5632 29.4716 62.5632C29.4971 62.5632 29.5099 62.5632 29.5354 62.5632C29.5226 63.9313 30.0326 65.3122 31.0781 66.3607C32.0981 67.3836 33.4496 67.9078 34.8011 67.9078C34.8266 67.9078 34.8394 67.9078 34.8649 67.9078C34.8521 69.2759 35.3621 70.6568 36.4076 71.7053L36.4969 71.7948C37.4914 72.7921 38.8174 73.3419 40.2199 73.3419C41.6224 73.3419 42.9484 72.7921 43.9429 71.7948L46.7479 68.9819L50.4454 72.6898C51.4526 73.7 52.7914 74.2498 54.2066 74.2498C55.6346 74.2498 56.9606 73.7 57.9679 72.6898C59.0261 71.6286 59.5489 70.2221 59.5234 68.8156C59.5489 68.8156 59.5871 68.8156 59.6126 68.8156C61.0406 68.8156 62.3666 68.2658 63.3739 67.2557C64.4321 66.1945 64.9549 64.788 64.9294 63.3815C64.9549 63.3815 64.9931 63.3815 65.0186 63.3815C66.3829 63.3815 67.7471 62.8573 68.7799 61.8216C69.7871 60.8115 70.3354 59.469 70.3354 58.0497C70.3354 58.0241 70.3354 57.9858 70.3354 57.9602C70.3609 57.9602 70.3991 57.9602 70.4246 57.9602C71.7889 57.9602 73.1531 57.436 74.1859 56.4003C75.3206 55.2623 75.8306 53.7536 75.7286 52.2704L84.8321 43.141C85.4186 42.5529 85.4186 41.6067 84.8321 41.0185C84.2711 40.4048 83.3276 40.4048 82.7411 40.993ZM22.5484 53.549C22.1149 53.1142 21.8854 52.5517 21.8854 51.9379C21.8854 51.3242 22.1276 50.7616 22.5484 50.3269L25.7869 47.0792C26.2331 46.6317 26.8069 46.4143 27.3934 46.4143C27.9799 46.4143 28.5536 46.6317 28.9999 47.0792C29.8796 47.9614 29.8796 49.4063 28.9999 50.3013L25.7614 53.549C24.8689 54.4312 23.4281 54.4312 22.5484 53.549ZM29.4716 59.5457C28.8596 59.5457 28.2986 59.3027 27.8651 58.8808C27.4316 58.4461 27.2021 57.8835 27.2021 57.2697C27.2021 56.656 27.4444 56.0934 27.8651 55.6587L31.1036 52.411L33.1181 50.3908C33.5516 49.9561 34.1126 49.7259 34.7246 49.7259C35.3366 49.7259 35.8976 49.9689 36.3311 50.3908C36.7646 50.8255 36.9941 51.3881 36.9941 52.0018C36.9941 52.6156 36.7519 53.1782 36.3311 53.6129L31.0781 58.8808C30.6446 59.3155 30.0709 59.5457 29.4716 59.5457ZM33.1946 64.2254C32.3149 63.3432 32.3149 61.8983 33.1946 61.0033L36.7646 57.4232C37.2109 56.9757 37.7846 56.7583 38.3711 56.7583C38.9576 56.7583 39.5314 56.9757 39.9776 57.4232C40.4111 57.8579 40.6406 58.4205 40.6406 59.0342C40.6406 59.6352 40.4111 60.2106 39.9776 60.6453L36.4076 64.2254C35.5151 65.1077 34.0744 65.1077 33.1946 64.2254ZM41.8136 69.6595C41.3801 70.0943 40.8191 70.3244 40.2071 70.3244C39.5951 70.3244 39.0341 70.0815 38.6006 69.6595L38.5114 69.57C37.6316 68.6878 37.6316 67.2429 38.5114 66.3479L42.0814 62.7678L42.5276 62.3203C42.9739 61.8728 43.5476 61.6554 44.1341 61.6554C44.7206 61.6554 45.2944 61.8728 45.7406 62.3203L45.8299 62.4098C46.7096 63.292 46.7096 64.7369 45.8299 65.6319L41.8136 69.6595Z" fill="#553D67"></path>
    <path d="M101.573 28.1172C100.986 27.5291 100.043 27.5291 99.4563 28.1172L93.8463 33.7431C93.7698 33.8199 93.6423 33.8199 93.5658 33.7431L73.7268 14.7429C73.6886 14.7045 73.6631 14.6534 73.6631 14.6022C73.6631 14.5511 73.6886 14.4999 73.7268 14.4616L85.4823 2.64713C86.0688 2.05896 86.0688 1.11278 85.4823 0.52462C84.8958 -0.0635451 83.9523 -0.0635451 83.3658 0.52462L71.5976 12.3263C70.9856 12.94 70.6541 13.7583 70.6668 14.6278C70.6796 15.331 70.9091 15.9959 71.3298 16.5329L65.9493 21.8264L60.8748 18.9879C60.2118 18.6171 59.4596 18.4253 58.7073 18.4253H44.2998L43.2033 17.3257C42.1833 16.3028 40.9848 15.5228 39.6333 15.0114L35.6426 13.4898L33.7938 11.6358C34.7501 10.0375 34.5461 7.92782 33.1691 6.54692L27.1638 0.52462C26.5773 -0.0635451 25.6338 -0.0635451 25.0473 0.52462C24.4608 1.11278 24.4608 2.05896 25.0473 2.64713L31.0526 8.66942C31.5116 9.12973 31.5116 9.87132 31.0526 10.3188L18.8381 22.568C18.2516 23.1562 18.2516 24.1024 18.8381 24.6905C19.1313 24.9846 19.5138 25.1252 19.8963 25.1252C20.2788 25.1252 20.6613 24.9846 20.9546 24.6905L31.7666 13.8478L33.7428 15.8297C33.8958 15.9831 34.0743 16.0982 34.2656 16.1749L38.5496 17.8115C39.4803 18.1696 40.2963 18.6938 41.0103 19.397C40.9211 19.4738 40.8318 19.5505 40.7426 19.64L35.0433 25.3554C33.9086 26.4934 33.2966 27.9894 33.2966 29.6004C33.2966 31.2115 33.9213 32.7075 35.0433 33.8454C36.2163 35.0218 37.7336 35.6099 39.2763 35.6099C40.6151 35.6099 41.9666 35.1624 43.0758 34.2418L47.3853 30.6872H51.8733L56.9988 35.8273C57.2921 36.1214 57.6746 36.262 58.0571 36.262C58.4396 36.262 58.8221 36.1214 59.1153 35.8273C59.7018 35.2391 59.7018 34.2929 59.1153 33.7048L55.4051 29.984C55.5581 29.7538 55.6346 29.4726 55.6346 29.1785C55.6346 28.3474 54.9588 27.6825 54.1428 27.6825H46.8371C46.4928 27.6825 46.1486 27.7976 45.8808 28.0277L41.1633 31.9275C39.9648 32.912 38.2436 32.8225 37.1471 31.7357C36.5861 31.1731 36.2673 30.4187 36.2673 29.6132C36.2673 28.8077 36.5733 28.0661 37.1471 27.4907L42.8463 21.7753C43.0631 21.5579 43.3436 21.4428 43.6496 21.4428H58.6818C58.9368 21.4428 59.1791 21.5068 59.3958 21.6346L65.0058 24.7672C65.8346 25.2275 66.8928 25.0869 67.5813 24.422L73.4463 18.6554L89.5878 34.1267L87.2418 36.4794C86.6553 37.0675 86.6553 38.0137 87.2418 38.6019C87.5351 38.896 87.9176 39.0366 88.3001 39.0366C88.6826 39.0366 89.0651 38.896 89.3583 38.6019L91.7808 36.1725C92.3418 36.5945 93.0176 36.799 93.6806 36.799C94.4966 36.799 95.3253 36.4922 95.9373 35.8656L101.547 30.2397C102.147 29.6516 102.147 28.6926 101.573 28.1172Z" fill="#553D67"></path>
  </symbol>
  <symbol fill="none" xmlns="http://www.w3.org/2000/svg" viewBox="0 0 28 28" id="instagram">
    <path d="M21.2518 5.15769C20.3566 5.15769 19.6235 5.89227 19.6235 6.80659C19.6235 7.71309 20.3489 8.45548 21.2518 8.45548C22.147 8.45548 22.8802 7.7209 22.8802 6.80659C22.8724 5.89227 22.147 5.15769 21.2518 5.15769ZM14.0208 7.26765C10.2547 7.26765 7.19097 10.3701 7.19097 14.1836C7.19097 17.9972 10.2547 21.0996 14.0208 21.0996C17.7868 21.0996 20.8505 17.9972 20.8505 14.1836C20.8505 10.3701 17.7868 7.26765 14.0208 7.26765ZM14.0208 18.6068C11.6052 18.6068 9.64507 16.6218 9.64507 14.1758C9.64507 11.7298 11.6052 9.74491 14.0208 9.74491C16.4363 9.74491 18.3964 11.7298 18.3964 14.1758C18.3964 16.6218 16.4363 18.6068 14.0208 18.6068ZM27.7961 8.43204C27.7961 3.77449 24.0686 0 19.4691 0H8.47976C3.88028 0 0.152832 3.77449 0.152832 8.43204V19.5601C0.152832 24.2177 3.88028 27.9922 8.47976 27.9922H19.4691C24.0686 27.9922 27.7961 24.2177 27.7961 19.5601V8.43204ZM25.1876 19.568C25.1876 22.7642 22.6255 25.3586 19.4691 25.3586H8.47976C5.3234 25.3586 2.76127 22.7642 2.76127 19.568V8.43204C2.76127 5.23584 5.3234 2.64136 8.47976 2.64136H19.4691C22.6255 2.64136 25.1876 5.23584 25.1876 8.43204V19.568Z" fill="#553D67"></path>
  </symbol>
  <symbol fill="none" xmlns="http://www.w3.org/2000/svg" viewBox="0 0 24 23" id="linkedin">
    <path d="M23.8032 13.8243V22.1703C23.8032 22.3735 23.6411 22.5454 23.4328 22.5454H19.1806C18.9799 22.5454 18.8101 22.3813 18.8101 22.1703V14.4104C18.8101 12.3707 18.0924 10.9719 16.2789 10.9719C14.8975 10.9719 14.0795 11.9097 13.7167 12.824C13.5855 13.1522 13.5547 13.5976 13.5547 14.0587V22.1781C13.5547 22.3813 13.3926 22.5533 13.1842 22.5533H8.93205C8.7314 22.5533 8.56161 22.3891 8.56161 22.1781C8.56933 20.1151 8.61564 10.081 8.56934 7.7288C8.56162 7.51781 8.73139 7.3537 8.93975 7.3537H13.1842C13.3849 7.3537 13.5547 7.51781 13.5547 7.7288V9.51055C13.547 9.52618 13.5315 9.54181 13.5238 9.55744H13.5547V9.51055C14.2184 8.47901 15.3991 7.00204 18.0538 7.00204C21.3414 6.98641 23.8032 9.15889 23.8032 13.8243ZM1.18391 22.5454H5.43613C5.63678 22.5454 5.80655 22.3813 5.80655 22.1703V7.71317C5.80655 7.50999 5.6445 7.33807 5.43613 7.33807H1.18391C0.983265 7.33807 0.813477 7.50218 0.813477 7.71317V22.1703C0.813477 22.3813 0.983265 22.5454 1.18391 22.5454Z" fill="#553D67"></path>
    <path d="M5.83742 2.70392C5.83742 4.19652 4.64125 5.4078 3.16726 5.4078C1.69326 5.4078 0.49707 4.19652 0.49707 2.70392C0.49707 1.21131 1.69326 3.73621e-05 3.16726 3.73621e-05C4.64125 -0.00777732 5.83742 1.21131 5.83742 2.70392Z" fill="#553D67"></path>
  </symbol>
  <symbol fill="none" xmlns="http://www.w3.org/2000/svg" viewBox="0 0 24 24" id="star">
    <path d="M12 17.5198L16.15 20.0298C16.91 20.4898 17.84 19.8098 17.64 18.9498L16.54 14.2298L20.21 11.0498C20.88 10.4698 20.5199 9.36977 19.6399 9.29977L14.81 8.88977L12.92 4.42977C12.58 3.61977 11.42 3.61977 11.08 4.42977L9.18995 8.87977L4.35995 9.28977C3.47995 9.35977 3.11995 10.4598 3.78995 11.0398L7.45995 14.2198L6.35995 18.9398C6.15995 19.7998 7.08995 20.4798 7.84995 20.0198L12 17.5198Z" fill="#FDC500"></path>
  </symbol>
  <symbol fill="none" xmlns="http://www.w3.org/2000/svg" viewBox="0 0 27 22" id="twitter">
    <path d="M25.9436 2.59528C25.1255 2.97038 24.2226 3.19701 23.3428 3.34549C23.7596 3.27516 24.3769 2.5015 24.6239 2.19673C25.002 1.72003 25.3185 1.18082 25.4882 0.594721C25.5114 0.547833 25.5268 0.49313 25.4805 0.454057C25.4265 0.430613 25.3879 0.446242 25.3416 0.461871C24.3538 0.99327 23.3351 1.384 22.247 1.65752C22.1544 1.68096 22.0926 1.65752 22.0309 1.60281C21.9383 1.50122 21.8534 1.39963 21.7608 1.32149C21.3055 0.930752 20.8116 0.618165 20.2637 0.391539C19.5382 0.0945815 18.7433 -0.0382683 17.9639 0.0164345C17.2076 0.0633226 16.459 0.282134 15.7876 0.641609C15.1085 1.00108 14.5066 1.49341 14.0281 2.09514C13.5342 2.7125 13.1638 3.44708 12.9785 4.22855C12.8011 4.97876 12.8088 5.72115 12.9245 6.47918C12.94 6.60421 12.9322 6.61984 12.8165 6.60421C8.57199 5.96341 5.0452 4.42391 2.18981 1.12612C2.06634 0.985455 1.99688 0.985455 1.89656 1.13393C0.646361 3.0329 1.25603 6.08063 2.81491 7.58105C3.02328 7.78423 3.23936 7.97959 3.47088 8.15933C3.38599 8.17496 2.34416 8.06556 1.41809 7.58105C1.29461 7.5029 1.23287 7.54979 1.21744 7.69045C1.20972 7.89363 1.22516 8.08119 1.24831 8.30781C1.48754 10.2302 2.8072 12.012 4.60532 12.7075C4.8214 12.8013 5.05292 12.8794 5.28444 12.9185C4.87542 13.0122 4.45097 13.0748 3.27023 12.981C3.1236 12.9497 3.06958 13.0279 3.1236 13.1685C4.01109 15.6145 5.91725 16.3413 7.35266 16.7477C7.5456 16.7789 7.73853 16.7789 7.93146 16.8258C7.92374 16.8414 7.90831 16.8414 7.90059 16.8571C7.42984 17.5917 5.77834 18.1309 5.01433 18.4044C3.61751 18.8967 2.10492 19.1155 0.630926 18.9748C0.391691 18.9436 0.345387 18.9436 0.283649 18.9748C0.221911 19.0139 0.275932 19.0686 0.353104 19.1311C0.654078 19.3343 0.955051 19.5062 1.26374 19.6782C2.19753 20.1783 3.17762 20.5769 4.1963 20.866C9.45947 22.3352 15.3941 21.2567 19.3453 17.2791C22.4476 14.1532 23.5358 9.8473 23.5358 5.5336C23.5358 5.36168 23.7364 5.2679 23.8522 5.18194C24.6625 4.56458 25.303 3.83 25.905 3.00946C26.0439 2.8219 26.0284 2.6578 26.0284 2.59528C26.0284 2.58746 26.0284 2.57184 26.0284 2.57184C26.0362 2.52495 26.0516 2.54839 25.9436 2.59528Z" fill="#553D67"></path>
    <path fill-rule="evenodd" clip-rule="evenodd" d="M8.78809 21.4442C8.78809 21.3973 9.2434 21.4442 8.78809 21.4442C8.78809 21.4207 8.84211 21.4442 8.78809 21.4442Z" fill="#553D67"></path>
    <path fill-rule="evenodd" clip-rule="evenodd" d="M17.9022 0.0478516C17.8714 0.0712957 17.8328 0.0712957 17.7942 0.0478516C17.8405 0.0478516 17.8791 0.0478516 17.9022 0.0478516Z" fill="#553D67"></path>
  </symbol>
  <symbol fill="none" xmlns="http://www.w3.org/2000/svg" viewBox="0 0 27 19" id="youtube">
    <path d="M26.0844 5.79994C26.0844 2.62718 23.5454 0.0483398 20.4044 0.0483398H5.67991C2.53898 0.0483398 0 2.61937 0 5.79994V12.7863C0 15.959 2.53898 18.5379 5.67991 18.5379H20.4044C23.5377 18.5379 26.0844 15.9668 26.0844 12.7863V5.79994ZM16.7928 9.64477L10.9199 12.9035C10.6653 13.0442 10.4337 12.8566 10.4337 12.5596V5.86246C10.4337 5.5655 10.673 5.37795 10.9276 5.52643L16.8391 8.95707C17.1015 9.11337 17.0552 9.49629 16.7928 9.64477Z" fill="#553D67"></path>
  </symbol>
</svg>